<?xml version="1.0" encoding="UTF-8" standalone="no" ?>
<!DOCTYPE svg PUBLIC "-//W3C//DTD SVG 1.1//EN" "http://www.w3.org/Graphics/SVG/1.1/DTD/svg11.dtd">
<svg xmlns="http://www.w3.org/2000/svg" xmlns:xlink="http://www.w3.org/1999/xlink" version="1.1" width="500" height="500" viewBox="0 0 500 500" xml:space="preserve">
<desc>Created with Fabric.js 4.6.0</desc>
<defs>
</defs>
<g transform="matrix(1 0 0 1 162.41 100.36)" id="AKfv7CJkh3Axeh56_XYDW"  >
<path style="stroke: rgb(0,0,0); stroke-width: 1; stroke-dasharray: none; stroke-linecap: round; stroke-dashoffset: 0; stroke-linejoin: round; stroke-miterlimit: 10; fill: none; fill-rule: nonzero; opacity: 1;" vector-effect="non-scaling-stroke"  transform=" translate(-162.41, -100.36)" d="M 162.40775912408762 100.36496350364962 L 162.40975912408763 100.36496350364962" stroke-linecap="round" />
</g>
<g transform="matrix(12.87 0 0 12.87 250 255.3)" id="m9rMIXf8sAkuY0libJ-eF"  >
<g style="" vector-effect="non-scaling-stroke"   >
		<g transform="matrix(1 0 0 1 0 0)" id="Q7rc_sDmtkqC6z4u2UMxO"  >
<path style="stroke: none; stroke-width: 1; stroke-dasharray: none; stroke-linecap: butt; stroke-dashoffset: 0; stroke-linejoin: miter; stroke-miterlimit: 4; fill: none; fill-rule: nonzero; opacity: 1;" vector-effect="non-scaling-stroke"  transform=" translate(-12, -12)" d="M 0 0 L 24 0 L 24 24 L 0 24 z" stroke-linecap="round" />
</g>
		<g transform="matrix(1 0 0 1 0.12 -0.01)" id="WH1H7UcTSRWNTve0cUQUl"  >
<path style="stroke: none; stroke-width: 1; stroke-dasharray: none; stroke-linecap: butt; stroke-dashoffset: 0; stroke-linejoin: miter; stroke-miterlimit: 4; fill: rgb(0,0,0); fill-rule: nonzero; opacity: 1;" vector-effect="non-scaling-stroke"  transform=" translate(-12.12, -11.99)" d="M 10 15.172 L 19.192 5.979000000000001 L 20.607 7.393000000000001 L 10 18 L 3.636 11.636 L 5.05 10.222 z" stroke-linecap="round" />
</g>
</g>
</g>
<g transform="matrix(-0.65 0 0 0.41 250 374.18)" id="L19fGZIlk9k0WHivELwE3"  >
<path style="stroke: none; stroke-width: 1; stroke-dasharray: none; stroke-linecap: butt; stroke-dashoffset: 0; stroke-linejoin: miter; stroke-miterlimit: 4; fill: rgb(0,0,0); fill-rule: nonzero; opacity: 1;" vector-effect="non-scaling-stroke"  transform=" translate(-300, -300)" d="M 430.559 130.561 C 421.495 121.49700000000001 406.79600000000005 121.49700000000001 397.733 130.561 C 388.67 139.624 388.67 154.323 397.733 163.38600000000002 L 511.13800000000003 276.78700000000003 L 23.21 276.78700000000003 C 10.393 276.787 0 287.181 0 299.998 C 0 312.815 10.393 323.20799999999997 23.21 323.20799999999997 L 511.138 323.20799999999997 L 397.732 436.614 C 388.66900000000004 445.67699999999996 388.66900000000004 460.376 397.732 469.43899999999996 C 402.264 473.97099999999995 408.20700000000005 476.23699999999997 414.14500000000004 476.23699999999997 C 420.083 476.23699999999997 426.02600000000007 473.97099999999995 430.55800000000005 469.43899999999996 L 600 299.998 L 430.559 130.561 z" stroke-linecap="round" />
</g>
<g transform="matrix(0.65 0 0 0.41 250 108.34)" id="u6CTx0v-DHlbznYJ3bLTU"  >
<path style="stroke: none; stroke-width: 1; stroke-dasharray: none; stroke-linecap: butt; stroke-dashoffset: 0; stroke-linejoin: miter; stroke-miterlimit: 4; fill: rgb(0,0,0); fill-rule: nonzero; opacity: 1;" vector-effect="non-scaling-stroke"  transform=" translate(-300, -300)" d="M 430.559 130.561 C 421.495 121.49700000000001 406.79600000000005 121.49700000000001 397.733 130.561 C 388.67 139.624 388.67 154.323 397.733 163.38600000000002 L 511.13800000000003 276.78700000000003 L 23.21 276.78700000000003 C 10.393 276.787 0 287.181 0 299.998 C 0 312.815 10.393 323.20799999999997 23.21 323.20799999999997 L 511.138 323.20799999999997 L 397.732 436.614 C 388.66900000000004 445.67699999999996 388.66900000000004 460.376 397.732 469.43899999999996 C 402.264 473.97099999999995 408.20700000000005 476.23699999999997 414.14500000000004 476.23699999999997 C 420.083 476.23699999999997 426.02600000000007 473.97099999999995 430.55800000000005 469.43899999999996 L 600 299.998 L 430.559 130.561 z" stroke-linecap="round" />
</g>
</svg>