<?xml version="1.0" encoding="UTF-8" standalone="no" ?>
<!DOCTYPE svg PUBLIC "-//W3C//DTD SVG 1.1//EN" "http://www.w3.org/Graphics/SVG/1.1/DTD/svg11.dtd">
<svg xmlns="http://www.w3.org/2000/svg" xmlns:xlink="http://www.w3.org/1999/xlink" version="1.1" width="500" height="500" viewBox="0 0 500 500" xml:space="preserve">
<desc>Created with Fabric.js 4.6.0</desc>
<defs>
</defs>
<g transform="matrix(2.77 0 0 2.77 253.4 234.26)" id="hp57RlKSC1tScnHj6_ydi"  >
<path style="stroke: none; stroke-width: 1; stroke-dasharray: none; stroke-linecap: butt; stroke-dashoffset: 0; stroke-linejoin: miter; stroke-miterlimit: 4; fill: rgb(0,0,0); fill-rule: nonzero; opacity: 0.8;" vector-effect="non-scaling-stroke"  transform=" translate(-56.27, -60.36)" d="M 11.64 100.12 L 11.24 99.65 L 10.18 108.28 C 10.021063761092222 109.62745996204582 9.329702295111094 110.85534673235605 8.26 111.69 C 6.626883730137932 113.00099363139682 4.35916046457491 113.18281684175626 2.5380226673845545 112.14878097386004 C 0.7168848701941988 111.11474510596382 -0.2889794869656175 109.07418994032956 0 107 L 2.79 84.65 L 2.79 84.58000000000001 C 2.8079279888903903 84.44177233740932 2.8346488317342513 84.30482801783454 2.87 84.17000000000002 L 2.87 84.17000000000002 C 3.181051901087718 82.85551382039338 4.001846723681597 81.71857520335463 5.151611765354937 81.0095846882608 C 6.3013768070282765 80.30059417316696 7.685809157129028 80.07770265761422 8.999999999999996 80.39 Q 20.22 82.92 31.42 85.54 C 32.73689723712292 85.83172245039538 33.880072585062955 86.6431245112361 34.59 87.79 C 35.2985582013289 88.93657777947968 35.5283946943988 90.31559673789906 35.230000000000004 91.63000000000001 L 35.230000000000004 91.63000000000001 C 34.93581953241959 92.94320588942234 34.124696532295815 94.0823830807073 32.980000000000004 94.79 C 31.83986959151439 95.50553298364602 30.46236284089104 95.73931350268131 29.150000000000006 95.44000000000001 C 25.840000000000007 94.69000000000001 22.530000000000005 93.92000000000002 19.230000000000004 93.16000000000001 C 20.125286362091213 94.2074181151791 21.07317310226927 95.20870692522634 22.070000000000004 96.16000000000001 C 29.261218318133835 103.18736378482703 38.400891510681845 107.88786669628233 48.30000000000001 109.65 C 53.15776866571612 110.50815002123558 58.11777037698511 110.62279316072106 63.01000000000002 109.99000000000001 C 67.85102612099863 109.38860135577728 72.57004405837688 108.0427198997273 77 106 L 77 106 Q 79.52 104.81 81.83 103.46 C 83.39 102.52999999999999 84.89999999999999 101.53999999999999 86.34 100.46 C 89.48570369941936 98.16983089120428 92.35786974380873 95.52582756996733 94.9 92.58 C 97.39124239934424 89.68997615921997 99.53581968452917 86.51841820225633 101.28999999999999 83.13 L 101.85000000000001 82.03 L 111.85000000000001 84.72 L 111.05000000000001 86.38 C 108.93567437712053 90.77251253005628 106.28186717890719 94.88423406247794 103.15 98.61999999999999 C 99.96776794445479 102.41086447349205 96.33799001983635 105.80223885264527 92.34 108.71999999999998 C 90.66 109.94999999999999 88.88000000000001 111.11999999999999 87.02000000000001 112.21999999999998 C 85.16000000000001 113.31999999999998 83.29 114.28999999999998 81.28000000000002 115.21999999999998 C 75.90288434876264 117.74757263847921 70.16931809066287 119.43391565556738 64.28000000000002 120.21999999999998 C 58.364755320755926 120.99697583692833 52.36551173165374 120.86545784930888 46.490000000000016 119.82999999999998 C 34.56773567283312 117.70901100097429 23.562046881080008 112.04237073010962 14.910000000000029 103.56999999999998 C 13.710000000000019 102.40999999999998 12.650000000000018 101.25999999999998 11.670000000000018 100.11999999999998 Z M 101 20.6 L 101.4 21.07 L 102.4 12.44 C 102.59160167921668 10.600127021015794 103.76258728196224 9.007457408160752 105.46160058651824 8.275885420440769 C 107.16061389107423 7.544313432720786 109.12234330865252 7.788078626621046 110.5906405348879 8.913221745386108 C 112.05893776112326 10.03836486415117 112.8045189705971 11.869187749530521 112.54 13.699999999999998 L 109.80000000000001 36.07 L 109.80000000000001 36.14 C 109.80000000000001 36.27 109.80000000000001 36.410000000000004 109.73000000000002 36.55 L 109.73000000000002 36.55 C 109.08158287306922 39.26321144417572 106.37007743652859 40.948982916235515 103.65000000000002 40.33 C 96.18000000000002 38.64 88.65000000000002 36.93 81.23000000000002 35.18 C 79.91679411057768 34.88581953241958 78.77761691929273 34.07469653229581 78.07000000000002 32.93 C 77.35388350255931 31.786385711122122 77.12015455631132 30.405587013287807 77.42000000000002 29.090000000000003 L 77.42000000000002 29.09 C 77.71418046758043 27.776794110577658 78.5253034677042 26.63761691929271 79.67000000000002 25.93 C 80.8136142888779 25.213883502559295 82.19441298671221 24.980154556311298 83.51000000000002 25.28 C 86.82000000000002 26.03 90.12000000000002 26.8 93.43000000000002 27.560000000000002 C 92.59000000000002 26.560000000000002 91.66000000000003 25.560000000000002 90.59000000000002 24.51 C 87.00597390163868 21.009793177639768 82.91714108482071 18.067047053087354 78.46000000000001 15.779999999999998 C 74.03104840764712 13.485731245766871 69.28071006164511 11.874189919018146 64.36999999999998 11 C 59.515602202450125 10.141785074923122 54.55888524662738 10.027139920842872 49.66999999999998 10.660000000000004 C 44.81925991156998 11.293845720061704 40.0963408914471 12.676986290240542 35.66999999999999 14.760000000000002 L 35.67 14.76 Q 33.14 15.94 30.840000000000003 17.3 C 29.270000000000003 18.23 27.770000000000003 19.22 26.320000000000004 20.3 C 23.175197919543212 22.58760117298324 20.306063908558755 25.231902460299914 17.770000000000035 28.179999999999968 C 15.271928253278237 31.06479367281856 13.126782791568637 34.23719189083981 11.380000000000003 37.63000000000001 L 10.810000000000002 38.73 L 0.76 36 L 1.56 34.34 C 3.676679757483262 29.948807434918045 6.330305205467436 25.837367500319772 9.459999999999985 22.100000000000016 C 12.644716181673532 18.311491894358188 16.274192417789234 14.920399388829184 20.270000000000003 12 Q 22.81 10.15 25.59 8.5 C 27.4 7.4399999999999995 29.32 6.43 31.33 5.5 C 36.70711565123736 2.972427361520778 42.44068190933714 1.2860843444326058 48.32999999999998 0.5 C 54.25838735687428 -0.2810821249368206 60.27143593796004 -0.14955722607964117 66.15999999999997 0.8900000000000006 C 72.08321117573419 1.937023867538632 77.81444185562366 3.872157050042487 83.15999999999995 6.62999999999998 C 88.52114461820136 9.388799711270828 93.4389973576705 12.934777149188257 97.75 17.149999999999995 C 98.94 18.31 100.01 19.459999999999997 100.99 20.599999999999998 Z" stroke-linecap="round" />
</g>
<g transform="matrix(17.9 0 0 17.9 253.4 250)" id="WEpt5hFagR5mF-THgWWhy"  >
<g style="opacity: 0.8;" vector-effect="non-scaling-stroke"   >
		<g transform="matrix(1 0 0 1 0 0)" id="6pxXw69kl_fHlin0Q6wu1"  >
<path style="stroke: none; stroke-width: 1; stroke-dasharray: none; stroke-linecap: butt; stroke-dashoffset: 0; stroke-linejoin: miter; stroke-miterlimit: 4; fill: none; fill-rule: nonzero; opacity: 1;" vector-effect="non-scaling-stroke"  transform=" translate(-12, -12)" d="M 0 0 L 24 0 L 24 24 L 0 24 z" stroke-linecap="round" />
</g>
		<g transform="matrix(1 0 0 1 0 0)" id="bCzmC__UNFS41PbzNBKUl" clip-path="url(#CLIPPATH_10)"  >
<clipPath id="CLIPPATH_10" >
	<path transform="matrix(1 0 0 1 0.03 -0.1) translate(-12.03, -11.9)" id="path410" d="M 7.4076799 7.371689 L 5.4449326 12.533211999999999 L 7.8321542 16.163581 L 15.167527 17.895473 L 18.623719 8.1786955 L 18.623719 8.1786955 L 13.210671 5.9131661 Z" stroke-linecap="round" />
</clipPath>
<path style="stroke: none; stroke-width: 1; stroke-dasharray: none; stroke-linecap: butt; stroke-dashoffset: 0; stroke-linejoin: miter; stroke-miterlimit: 4; fill: rgb(0,0,0); fill-rule: nonzero; opacity: 1;" vector-effect="non-scaling-stroke"  transform=" translate(-12, -12)" d="M 12 22 C 6.477 22 2 17.523 2 12 C 2 6.477 6.477 2 12 2 C 17.523 2 22 6.477 22 12 C 22 17.523 17.523 22 12 22 z M 12 20 C 16.418277998646346 20 20 16.418277998646346 20 12 C 20 7.581722001353652 16.418277998646346 4 12 4 C 7.581722001353652 4 4 7.581722001353652 4 12 C 4 16.418277998646346 7.581722001353652 20 12 20 z M 11.003 16 L 6.76 11.757 L 8.174 10.343 L 11.003 13.172 L 16.659 7.515000000000001 L 18.073999999999998 8.929 L 11.003 16 z" stroke-linecap="round" />
</g>
</g>
</g>
</svg>